<?xml version="1.0" encoding="utf-8"?>
<!-- Generator: Adobe Illustrator 23.0.1, SVG Export Plug-In . SVG Version: 6.00 Build 0)  -->
<svg version="1.1" id="Layer_1" xmlns="http://www.w3.org/2000/svg" xmlns:xlink="http://www.w3.org/1999/xlink" x="0px" y="0px"
	 viewBox="0 0 38.6 9.6" style="enable-background:new 0 0 38.6 9.6;" xml:space="preserve">
<style type="text/css">
	.st0{fill:#0A0B09;}
</style>
<g transform="translate(4.4136 8.4)">
	<path class="st0" d="M32.6-1.6c-0.6,0-1.1,0.5-1.1,1.1s0.5,1.1,1.1,1.1s1.1-0.5,1.1-1.1C33.7-1.2,33.2-1.6,32.6-1.6z M29.1-2.5
		c0-0.8-0.7-1.5-1.5-1.5s-1.5,0.7-1.5,1.5S26.8-1,27.6-1S29.1-1.7,29.1-2.5z M29.1-5.3h1.7v5.7h-1.7V0c-0.4,0.4-1,0.6-1.6,0.6
		c-1.7,0-3-1.4-3-3s1.3-3,3-3c0.6,0,1.2,0.2,1.7,0.5v-0.4H29.1z M15.5-4.6v-0.7h-1.7v5.7h1.7v-2.7c0-0.9,1-1.4,1.6-1.4l0,0v-1.6
		C16.5-5.3,15.9-5,15.5-4.6L15.5-4.6z M11.2-2.5c0-0.8-0.7-1.5-1.5-1.5S8.2-3.3,8.2-2.5S8.9-1,9.7-1S11.2-1.7,11.2-2.5z M11.2-5.3
		h1.7v5.7h-1.7V0c-0.5,0.4-1,0.6-1.7,0.6c-1.7,0-3-1.4-3-3s1.3-3,3-3c0.6,0,1.2,0.2,1.7,0.5V-5.3L11.2-5.3z M21.4-5.5
		c-0.7,0-1.3,0.2-1.7,0.8v-0.6H18v5.7h1.7v-3c0-0.9,0.6-1.3,1.3-1.3c0.7,0,1.2,0.4,1.2,1.3v3h1.7v-3.6C23.9-4.6,22.8-5.5,21.4-5.5
		L21.4-5.5z M4.1,0.4h1.7v-8.3H4.1V0.4z M-3.7,0.4h1.9v-8.3h-1.9V0.4z M2.8-7.9c0,1.8-0.6,3.5-1.9,4.7l2.6,3.6H1.2l-2.8-3.9l0.7-0.6
		C0.3-5,1-6.4,1-7.9H2.8L2.8-7.9z"/>
</g>
</svg>
