<svg id="Layer_1" data-name="Layer 1" xmlns="http://www.w3.org/2000/svg" viewBox="0 0 1371.94 129.9"><title>revrewards_white</title><path d="M1304.23,9.86c8.51,1.35,17.2,2.08,25.5,4.24,8.59,2.25,16.8,5.89,26.06,9.23l-14.3,17.06c-9.49-2.84-18.32-6.42-27.51-8-7.54-1.26-15.51-.37-23.25.15-2.41.17-5,1.82-7,3.49-4.52,4-3.63,10.33,2,12.34,4.77,1.71,10,2.35,15,3.07,12.33,1.75,24.91,2.34,37,5.12,15.51,3.56,22.73,12.5,23.77,26.16,1.12,14.62-5.73,26.37-19.59,32.51-17.32,7.68-35.37,7-53.43,3.37-14.39-2.87-27.33-9.16-39.36-18.07l14-16.44c8,4,15.45,8.46,23.4,11.63,11.78,4.69,24.18,6.13,36.72,3.23a22.74,22.74,0,0,0,8.86-4.24c6-4.85,5.08-12.83-2.16-15.44-6.15-2.22-12.88-3-19.42-3.94-10.36-1.55-20.9-2.12-31.11-4.26-10.59-2.23-19.78-7.24-23.29-18.6a29.52,29.52,0,0,1,12.73-34.12c7.32-4.64,15.47-6.74,24-7.62,2.13-.22,4.24-.6,6.36-.91Z"/><path d="M811.9,13.77c-.61,2-1,3.55-1.57,5.07C799.55,50.21,788.68,81.56,778.05,113c-1.3,3.82-3.12,5.18-7.11,4.83a70.35,70.35,0,0,0-13,0c-4.42.44-6.39-1.11-7.76-5.33-5.42-16.63-11.26-33.12-16.94-49.67-.48-1.39-1-2.75-2-5.44-1,2.39-1.58,3.73-2.05,5.12-5.76,16.87-11.6,33.72-17.15,50.65-1.19,3.61-2.9,4.92-6.73,4.66-5.31-.35-10.67.09-16-.2-1.42-.08-3.62-1.26-4-2.42Q667.81,65.17,650.69,15c-.1-.27.06-.63.13-1.25,8.29,0,16.61-.16,24.92.16,1.26.05,3.07,2.11,3.54,3.58,6.09,19,12,38.09,17.94,57.15A12.59,12.59,0,0,0,700,79.93c7.43-22,14.86-44,22.22-65.74a5,5,0,0,1,.86-.27c5.66,0,12.63-2.05,16.61.5,3.79,2.45,4.68,9.58,6.47,14.78C752,46.05,757.6,63,764.32,80c.6-1.71,1.27-3.4,1.81-5.12C772,56,778,37.12,783.68,18.14c1.07-3.58,2.71-4.57,6.25-4.44C797.07,14,804.22,13.77,811.9,13.77Z"/><path d="M1114.45,117.09V14.47c.28-.2.55-.55.81-.54,22,.24,44-.56,65.84,1.06,27.43,2,45.53,23.45,45.36,51s-18.63,48.72-46,50.59c-21.55,1.47-43.25.76-64.87,1C1115.32,117.6,1115,117.35,1114.45,117.09ZM1140.21,96c11.33,0,22.17.58,32.91-.15,14.59-1,24.79-11.42,26.14-25.4,1.61-16.58-5.2-30.34-18.89-33-13-2.49-26.59-1.95-40.16-2.76Z"/><path d="M390.33,14.74c24.88,0,49.33-.37,73.76.2,8.8.21,16.64,4.54,22.86,11,13.3,13.85,10.8,35.1-5.41,46-2.44,1.64-5.09,3-7.93,4.63l25.67,41.17c-6.74,0-12.68-.61-18.43.14-8.28,1.08-13-2-16.66-9.34C460,100,454.62,91.91,449.4,83.87a8.34,8.34,0,0,0-5.74-3.3c-9-.35-17.94-.15-27.64-.15v37H390.33Zm25.82,44.59c13.74,0,27.06.27,40.35-.1,7.47-.2,13.09-5.66,13.36-11.72s-4.81-11.94-12.55-12.3c-13.59-.61-27.22-.17-41.16-.17Z"/><path d="M1055.53,76.5l25.69,41.2c-9.9,0-18.81.14-27.7-.16-1.29,0-2.83-2-3.7-3.42-6.15-10-12.25-20-18.16-30.17-1.52-2.62-3.22-3.67-6.31-3.6-8.95.2-17.91.07-27.56.07v37.07H972.38V14.13c1-.1,2.32-.34,3.58-.34,20.16,0,40.32-.2,60.47.16A61.17,61.17,0,0,1,1054,16.88c13,4.26,21.65,13,23.16,27,1.46,13.5-5.25,24.09-18.67,31C1057.67,75.28,1056.83,75.77,1055.53,76.5ZM998.05,59a8.15,8.15,0,0,0,1.44.42c11.79,0,23.59.07,35.38.05a27.88,27.88,0,0,0,5.92-.54c6.62-1.52,11-6.26,11-11.69a11.77,11.77,0,0,0-11.35-11.66c-14-.66-28.09-.2-42.43-.2Z"/><path d="M629.85,96V117.4H532.54V14.14h93.25v21H558.38V52.71h40.4v21.4H558.37V96Z"/><path d="M819.44,117.72c.88-2.08,1.38-3.44,2-4.73,15.89-31.73,31.87-63.42,47.62-95.22,1.6-3.23,3.46-4.26,6.86-4,5.78.35,12.71-1.52,17,1,4.11,2.44,5.6,9.34,8.11,14.34q20.89,41.6,41.71,83.23c.79,1.57,1.45,3.2,2.42,5.37-9.08,0-17.53.12-26-.12-1.2,0-2.81-1.52-3.45-2.74-2.53-4.81-4.54-9.91-7.21-14.65a6.64,6.64,0,0,0-4.69-3q-22.23-.34-44.45,0a6.6,6.6,0,0,0-4.73,3c-2.63,4.75-4.56,9.89-7.1,14.69a5.65,5.65,0,0,1-3.94,2.74C835.9,117.86,828.08,117.72,819.44,117.72Zm62.31-75.14c-5.93,12.64-11.22,23.9-16.62,35.43h33.28Z"/><path d="M26.39,76.29v41.07H14.56V17.87h7c16.66,0,33.32-.18,50,.1a74,74,0,0,1,17.76,2.19c13.06,3.51,22,15,22,26.89-.07,12.78-8.07,22.49-22,26.64-1,.29-1.89.61-3.53,1.15l26.45,42.86c-4.78,0-8.58.31-12.28-.15-1.39-.18-2.9-1.93-3.77-3.32C89,102.72,82,91.09,74.77,79.61c-.89-1.44-2.81-3.16-4.28-3.18C56,76.19,41.55,76.29,26.39,76.29Zm-1.75-11c18.13,0,35.78.27,53.42-.21,4-.11,8.45-2.17,11.86-4.51,8.81-6,9.44-17.38,2-25-5-5.1-11.36-6.71-18.2-6.81-9.33-.15-18.66-.07-28-.08H24.64Z"/><path d="M232.59,106.75v10.59H143.75V18.26H229V28.57H155.85v31H200V70.29H155.84v36.46Z"/><path d="M248.7,18.28c13.09-1.42,13.08-1.42,18.42,9.52q17.26,35.39,34.55,70.76c.77,1.58,1.67,3.09,2.94,5.43,1.22-2.34,2.06-3.87,2.83-5.43,12.11-24.77,24.38-49.46,36.18-74.37,2.34-4.92,4.94-7.34,10.42-6.36a34.39,34.39,0,0,0,5.43,0,41.44,41.44,0,0,1-1.5,4.05c-15.34,30.73-30.75,61.42-46,92.2-1.53,3.1-3.49,4-6.61,3.61s-6.62,1.23-8.83-3.27C281.12,83.23,265.41,52.14,249.79,21,249.43,20.28,249.19,19.51,248.7,18.28Z"/></svg>