<svg xmlns="http://www.w3.org/2000/svg" viewBox="0 0 489.4 60.6"><defs><style>.cls-1{fill:#fff;}</style></defs><g id="Layer_2" data-name="Layer 2"><g id="Layer_1-2" data-name="Layer 1"><path class="cls-1" d="M0,4.2H51.6v5.9H29.2V58.7H22.5V10.1H0Z"/><path class="cls-1" d="M66.5,58.7V4.2h6.6v22h37.6V4.2h6.6V58.7h-6.6V32.1H73.1V58.7Z"/><path class="cls-1" d="M171.7,32.9H147.5V52.8h41.8v5.9H140.9V4.2h46.5v5.9H147.5V27h24.2Z"/><path class="cls-1" d="M209.4,58.7V1.9h36.1c8,0,13.7,2,17.3,5.8a11.93,11.93,0,0,1,3.4,8.2c0,4.8-3.1,9-7.5,11.2,6.7,2.3,10.7,7.4,10.7,14.1a16.35,16.35,0,0,1-5.3,12.1c-4.1,4-8.6,5.4-17.2,5.4Zm14.1-45.5V24.3h20.6c3,0,4.7-.7,5.9-1.8a5.5,5.5,0,0,0,1.7-4.1,4.52,4.52,0,0,0-1.2-3.1c-1.5-1.6-3.4-2.1-6.7-2.1Zm0,21.3v13H246c3.4,0,5.8-.8,7.2-2.2a6.07,6.07,0,0,0,1.7-4.2,6,6,0,0,0-1.8-4.2c-1.4-1.4-3.5-2.4-7.2-2.4Z"/><path class="cls-1" d="M299.7,1.9V47h35.4V58.7H285.7V1.9Z"/><path class="cls-1" d="M378.5,0c18.9,0,34.1,13.6,34.1,30.2,0,16.8-15.2,30.4-34.1,30.4S344.6,47,344.6,30.2C344.6,13.6,359.5,0,378.5,0Zm0,48.9c10.9,0,19.5-8.5,19.5-18.7s-8.6-18.4-19.5-18.4-19.4,8.3-19.4,18.4S367.6,48.9,378.5,48.9Z"/><path class="cls-1" d="M480.1,18.9a33,33,0,0,0-19.7-7.1c-11.3,0-19.1,8.5-19.1,18.6,0,9.3,6.8,18.4,20.1,18.4,5.2,0,11.2-1.2,14.9-3.4V36.8H458.1V25.6h31.3v26a54.44,54.44,0,0,1-28.6,8.9c-19.5,0-34-13.5-34-30.2S441.5,0,460.3,0c9.6,0,20.1,3.7,29,10.4Z"/></g></g></svg>